/* XPM */
static char * chocolate_bar_32_32_xpm[] = {
"32 32 8 1",
" 	c None",
".	c #000000",
"+	c #A85400",
"@	c #FCFCFC",
"#	c #A80000",
"$	c #A8A8A8",
"%	c #545454",
"&	c #FCFC54",
"          ............          ",
"          ............          ",
"         .++++++++++..          ",
"         .++++++++++..          ",
"         .++.......+..          ",
"         .++.......+..          ",
"         .+++++++..+..          ",
"         .+++++++..+..          ",
"         .+++++++..+..          ",
"         .+++++++..+..          ",
"         .++++++++++..          ",
"         .++++++++++..          ",
"         .++.......+....        ",
"         .++.......+....        ",
"         .+++++@@##.@@##.       ",
"         .+++++@@##.@@##.       ",
"     ..$$.++++@++++#$$%%@..     ",
"     ..$$.++++@++++#$$%%@..     ",
"     ..++$..@@++++++##@@@..     ",
"     ..++$..@@++++++##@@@..     ",
"       ..+#####$$$$%..###..     ",
"       ..+#####$$$$%..###..     ",
"       ..+##&&#&&##$##...       ",
"       ..+##&&#&&##$##...       ",
"       ..+####&##&&$..          ",
"       ..+####&##&&$..          ",
"       ..+%%$$$$$$$@..          ",
"       ..+%%$$$$$$$@..          ",
"       ..%$$$$$$$$$$..          ",
"       ..%$$$$$$$$$$..          ",
"         ...........            ",
"         ...........            "};
